<svg xmlns="http://www.w3.org/2000/svg" width="2000" height="900"><rect width="2000" height="900" x="0" y="0" fill="#FFFFFF" id="backgorund"/><g transform="translate(10,10)" id="viz"><g id="links"><path d="M0,600C163.99999999999997,600,163.99999999999997,600,327.99999999999994,600" fill="none" stroke="#ccc"/><path d="M327.99999999999994,600C492,600,492,600,656,600" fill="none" stroke="#ccc"/><path d="M656,600C820,600,820,440,984,440" fill="none" stroke="#ccc"/><path d="M656,600C820,600,820,760,984,760" fill="none" stroke="#ccc"/><path d="M984,440C1148,440,1148,280,1312,280" fill="none" stroke="#ccc"/><path d="M984,440C1148,440,1148,600,1312,600" fill="none" stroke="#ccc"/><path d="M984,760C1148,760,1148,760,1312,760" fill="none" stroke="#ccc"/><path d="M1312,280C1476,280,1476,40,1640,40" fill="none" stroke="#ccc"/><path d="M1312,280C1476,280,1476,119.99999999999999,1640,119.99999999999999" fill="none" stroke="#ccc"/><path d="M1312,280C1476,280,1476,200,1640,200" fill="none" stroke="#ccc"/><path d="M1312,280C1476,280,1476,280,1640,280" fill="none" stroke="#ccc"/><path d="M1312,280C1476,280,1476,360,1640,360" fill="none" stroke="#ccc"/><path d="M1312,280C1476,280,1476,440,1640,440" fill="none" stroke="#ccc"/><path d="M1312,280C1476,280,1476,520,1640,520" fill="none" stroke="#ccc"/><path d="M1312,600C1476,600,1476,600,1640,600" fill="none" stroke="#ccc"/><path d="M1312,760C1476,760,1476,680,1640,680" fill="none" stroke="#ccc"/><path d="M1312,760C1476,760,1476,760,1640,760" fill="none" stroke="#ccc"/><path d="M1312,760C1476,760,1476,840,1640,840" fill="none" stroke="#ccc"/></g><g id="nodes"><g transform="translate(0,600)"><circle fill="#ccc" r="5"/><text text-anchor="end" dominant-baseline="text-before-edge" transform="translate(0,0)"><tspan x="-8" y="0" dy="0" style="font-family: Arial, sans-serif; font-size: 10px; fill: black; font-weight: normal;"/></text></g><g id="ZBPLEX" transform="translate(327.99999999999994,600)"><circle fill="#ccc" r="5"/><text text-anchor="end" dominant-baseline="text-before-edge" transform="translate(0,-5.681818008422852)"><tspan x="-8" y="0" dy="0" style="font-family: Arial, sans-serif; font-size: 10px; fill: black; font-weight: normal;">ZBPLEX</tspan></text></g><g id="ZB01" transform="translate(656,600)"><circle fill="#ccc" r="5"/><text text-anchor="end" dominant-baseline="text-before-edge" transform="translate(0,-5.681818008422852)"><tspan x="-8" y="0" dy="0" style="font-family: Arial, sans-serif; font-size: 10px; fill: black; font-weight: normal;">ZB01</tspan></text></g><g id="AESDATA" transform="translate(984,440)"><circle fill="#1f77b4" r="5"/><text text-anchor="end" dominant-baseline="text-before-edge" transform="translate(0,-5.681818008422852)"><tspan x="-8" y="0" dy="0" style="font-family: Arial, sans-serif; font-size: 10px; fill: black; font-weight: normal;">AESDATA</tspan></text></g><g id="CIPHER" transform="translate(984,760)"><circle fill="#ff7f0e" r="5"/><text text-anchor="end" dominant-baseline="text-before-edge" transform="translate(0,-5.681818008422852)"><tspan x="-8" y="0" dy="0" style="font-family: Arial, sans-serif; font-size: 10px; fill: black; font-weight: normal;">CIPHER</tspan></text></g><g id="256" transform="translate(1312,280)"><circle fill="#1f77b4" r="5"/><text text-anchor="end" dominant-baseline="text-before-edge" transform="translate(0,-5.681818008422852)"><tspan x="-8" y="0" dy="0" style="font-family: Arial, sans-serif; font-size: 10px; fill: black; font-weight: normal;">256</tspan></text></g><g id="128" transform="translate(1312,600)"><circle fill="#1f77b4" r="5"/><text text-anchor="end" dominant-baseline="text-before-edge" transform="translate(0,-5.681818008422852)"><tspan x="-8" y="0" dy="0" style="font-family: Arial, sans-serif; font-size: 10px; fill: black; font-weight: normal;">128</tspan></text></g><g transform="translate(1312,760)"><circle fill="#ff7f0e" r="5"/><text text-anchor="end" dominant-baseline="text-before-edge" transform="translate(0,0)"><tspan x="-8" y="0" dy="0" style="font-family: Arial, sans-serif; font-size: 10px; fill: black; font-weight: normal;"/></text></g><g id="ALAN.AES.WWZSEC" transform="translate(1640,40)"><circle fill="#1f77b4" r="10"/><text text-anchor="start" dominant-baseline="text-before-edge" transform="translate(0,-5.681818008422852)"><tspan x="12" y="0" dy="0" style="font-family: Arial, sans-serif; font-size: 10px; fill: black; font-weight: bold;">ALAN.AES.WWZSEC</tspan></text></g><g id="DATAKEY.BERLIN" transform="translate(1640,119.99999999999999)"><circle fill="#1f77b4" r="10"/><text text-anchor="start" dominant-baseline="text-before-edge" transform="translate(0,-5.681818008422852)"><tspan x="12" y="0" dy="0" style="font-family: Arial, sans-serif; font-size: 10px; fill: black; font-weight: bold;">DATAKEY.BERLIN</tspan></text></g><g id="DATASET.KEY.HSBC" transform="translate(1640,200)"><circle fill="#1f77b4" r="10"/><text text-anchor="start" dominant-baseline="text-before-edge" transform="translate(0,-5.681818008422852)"><tspan x="12" y="0" dy="0" style="font-family: Arial, sans-serif; font-size: 10px; fill: black; font-weight: bold;">DATASET.KEY.HSBC</tspan></text></g><g id="DATASET.KEY4.FROMTKE.V001" transform="translate(1640,280)"><circle fill="#1f77b4" r="10"/><text text-anchor="start" dominant-baseline="text-before-edge" transform="translate(0,-5.681818008422852)"><tspan x="12" y="0" dy="0" style="font-family: Arial, sans-serif; font-size: 10px; fill: black; font-weight: bold;">DATASET.KEY4.FROMTKE.V001</tspan></text></g><g id="DATASET.KEY6.FROMTKE.V001" transform="translate(1640,360)"><circle fill="#1f77b4" r="10"/><text text-anchor="start" dominant-baseline="text-before-edge" transform="translate(0,-5.681818008422852)"><tspan x="12" y="0" dy="0" style="font-family: Arial, sans-serif; font-size: 10px; fill: black; font-weight: bold;">DATASET.KEY6.FROMTKE.V001</tspan></text></g><g id="DATASET.KEY7.FROMTKE.V001" transform="translate(1640,440)"><circle fill="#1f77b4" r="10"/><text text-anchor="start" dominant-baseline="text-before-edge" transform="translate(0,-5.681818008422852)"><tspan x="12" y="0" dy="0" style="font-family: Arial, sans-serif; font-size: 10px; fill: black; font-weight: bold;">DATASET.KEY7.FROMTKE.V001</tspan></text></g><g id="STEFS.AESTOKEN.INCKDS" transform="translate(1640,520)"><circle fill="#1f77b4" r="10"/><text text-anchor="start" dominant-baseline="text-before-edge" transform="translate(0,-5.681818008422852)"><tspan x="12" y="0" dy="0" style="font-family: Arial, sans-serif; font-size: 10px; fill: black; font-weight: bold;">STEFS.AESTOKEN.INCKDS</tspan></text></g><g id="AYMERIC.AES.IMPORTER.EXPORTER" transform="translate(1640,600)"><circle fill="#1f77b4" r="10"/><text text-anchor="start" dominant-baseline="text-before-edge" transform="translate(0,-5.681818008422852)"><tspan x="12" y="0" dy="0" style="font-family: Arial, sans-serif; font-size: 10px; fill: black; font-weight: bold;">AYMERIC.AES.IMPORTER.EXPORTER</tspan></text></g><g id="ALAN.AES.ECDH.WWZSEC" transform="translate(1640,680)"><circle fill="#ff7f0e" r="10"/><text text-anchor="start" dominant-baseline="text-before-edge" transform="translate(0,-5.681818008422852)"><tspan x="12" y="0" dy="0" style="font-family: Arial, sans-serif; font-size: 10px; fill: black; font-weight: bold;">ALAN.AES.ECDH.WWZSEC</tspan></text></g><g id="AYMERIC.AES.ECDH.WWZSEC" transform="translate(1640,760)"><circle fill="#ff7f0e" r="10"/><text text-anchor="start" dominant-baseline="text-before-edge" transform="translate(0,-5.681818008422852)"><tspan x="12" y="0" dy="0" style="font-family: Arial, sans-serif; font-size: 10px; fill: black; font-weight: bold;">AYMERIC.AES.ECDH.WWZSEC</tspan></text></g><g id="AYMERIC.AES.WWZSEC" transform="translate(1640,840)"><circle fill="#ff7f0e" r="10"/><text text-anchor="start" dominant-baseline="text-before-edge" transform="translate(0,-5.681818008422852)"><tspan x="12" y="0" dy="0" style="font-family: Arial, sans-serif; font-size: 10px; fill: black; font-weight: bold;">AYMERIC.AES.WWZSEC</tspan></text></g></g></g><g id="legend" transform="translate(1800,10)"><g transform="translate(5,0)"><g class="legendSize" transform="translate(0,0)"><g class="legendCells" transform="translate(10,15.909090042114258)"><g class="cell" transform="translate(0, 0)"><circle class="swatch" r="0" fill="none" stroke="#ccc"/><text class="label" transform="translate( 15,&#10;          5)" font-family="&quot;Arial&quot;, sans-serif" font-size="10px"><tspan x="0" dy="0em">0.0</tspan></text></g><g class="cell" transform="translate(0, 25.909090042114258)"><circle class="swatch" r="10" fill="none" stroke="#ccc"/><text class="label" transform="translate( 15,&#10;          5)" font-family="&quot;Arial&quot;, sans-serif" font-size="10px"><tspan x="0" dy="0em">1.0</tspan></text></g></g><text class="legendTitle" font-family="&quot;Arial&quot;, sans-serif" font-size="12px" font-weight="bold"><tspan x="0" dy="0em">Number of records</tspan></text></g><g class="legendColor" transform="translate(0,84.54544830322266)"><g class="legendCells" transform="translate(0,15.909090042114258)"><g class="cell" transform="translate(0, 0)"><rect class="swatch" height="15" width="15" style="fill: rgb(31, 119, 180);"/><text class="label" transform="translate( 20, 12.5)" font-family="&quot;Arial&quot;, sans-serif" font-size="10px"><tspan x="0" dy="0em">AESDATA</tspan></text></g><g class="cell" transform="translate(0, 20.909090042114258)"><rect class="swatch" height="15" width="15" style="fill: rgb(255, 127, 14);"/><text class="label" transform="translate( 20, 12.5)" font-family="&quot;Arial&quot;, sans-serif" font-size="10px"><tspan x="0" dy="0em">CIPHER</tspan></text></g></g><text class="legendTitle" font-family="&quot;Arial&quot;, sans-serif" font-size="12px" font-weight="bold"><tspan x="0" dy="0em">Key Type</tspan></text></g></g></g></svg>