<svg xmlns="http://www.w3.org/2000/svg" width="2000" height="900"><rect width="2000" height="900" x="0" y="0" fill="#FFFFFF" id="backgorund"/><g transform="translate(10,10)" id="viz"><g id="links"><path d="M0,592.1276595744682C163.99999999999997,592.1276595744682,163.99999999999997,592.1276595744682,327.99999999999994,592.1276595744682" fill="none" stroke="#ccc"/><path d="M327.99999999999994,592.1276595744682C492,592.1276595744682,492,592.1276595744682,656,592.1276595744682" fill="none" stroke="#ccc"/><path d="M656,592.1276595744682C820,592.1276595744682,820,444.6808510638301,984,444.6808510638301" fill="none" stroke="#ccc"/><path d="M656,592.1276595744682C820,592.1276595744682,820,739.5744680851067,984,739.5744680851067" fill="none" stroke="#ccc"/><path d="M984,444.6808510638301C1148,444.6808510638301,1148,168.51063829787245,1312,168.51063829787245" fill="none" stroke="#ccc"/><path d="M984,444.6808510638301C1148,444.6808510638301,1148,449.36170212765995,1312,449.36170212765995" fill="none" stroke="#ccc"/><path d="M984,444.6808510638301C1148,444.6808510638301,1148,571.0638297872346,1312,571.0638297872346" fill="none" stroke="#ccc"/><path d="M984,444.6808510638301C1148,444.6808510638301,1148,589.7872340425536,1312,589.7872340425536" fill="none" stroke="#ccc"/><path d="M984,739.5744680851067C1148,739.5744680851067,1148,739.5744680851067,1312,739.5744680851067" fill="none" stroke="#ccc"/><path d="M1312,168.51063829787245C1476,168.51063829787245,1476,9.36170212765958,1640,9.36170212765958" fill="none" stroke="#ccc"/><path d="M1312,168.51063829787245C1476,168.51063829787245,1476,28.08510638297874,1640,28.08510638297874" fill="none" stroke="#ccc"/><path d="M1312,168.51063829787245C1476,168.51063829787245,1476,46.8085106382979,1640,46.8085106382979" fill="none" stroke="#ccc"/><path d="M1312,168.51063829787245C1476,168.51063829787245,1476,65.53191489361706,1640,65.53191489361706" fill="none" stroke="#ccc"/><path d="M1312,168.51063829787245C1476,168.51063829787245,1476,84.25531914893622,1640,84.25531914893622" fill="none" stroke="#ccc"/><path d="M1312,168.51063829787245C1476,168.51063829787245,1476,102.97872340425538,1640,102.97872340425538" fill="none" stroke="#ccc"/><path d="M1312,168.51063829787245C1476,168.51063829787245,1476,121.70212765957454,1640,121.70212765957454" fill="none" stroke="#ccc"/><path d="M1312,168.51063829787245C1476,168.51063829787245,1476,140.42553191489372,1640,140.42553191489372" fill="none" stroke="#ccc"/><path d="M1312,168.51063829787245C1476,168.51063829787245,1476,159.14893617021286,1640,159.14893617021286" fill="none" stroke="#ccc"/><path d="M1312,168.51063829787245C1476,168.51063829787245,1476,177.87234042553203,1640,177.87234042553203" fill="none" stroke="#ccc"/><path d="M1312,168.51063829787245C1476,168.51063829787245,1476,196.59574468085117,1640,196.59574468085117" fill="none" stroke="#ccc"/><path d="M1312,168.51063829787245C1476,168.51063829787245,1476,215.31914893617034,1640,215.31914893617034" fill="none" stroke="#ccc"/><path d="M1312,168.51063829787245C1476,168.51063829787245,1476,234.0425531914895,1640,234.0425531914895" fill="none" stroke="#ccc"/><path d="M1312,168.51063829787245C1476,168.51063829787245,1476,252.76595744680864,1640,252.76595744680864" fill="none" stroke="#ccc"/><path d="M1312,168.51063829787245C1476,168.51063829787245,1476,271.4893617021278,1640,271.4893617021278" fill="none" stroke="#ccc"/><path d="M1312,168.51063829787245C1476,168.51063829787245,1476,290.212765957447,1640,290.212765957447" fill="none" stroke="#ccc"/><path d="M1312,168.51063829787245C1476,168.51063829787245,1476,308.93617021276617,1640,308.93617021276617" fill="none" stroke="#ccc"/><path d="M1312,168.51063829787245C1476,168.51063829787245,1476,327.65957446808534,1640,327.65957446808534" fill="none" stroke="#ccc"/><path d="M1312,449.36170212765995C1476,449.36170212765995,1476,346.3829787234045,1640,346.3829787234045" fill="none" stroke="#ccc"/><path d="M1312,449.36170212765995C1476,449.36170212765995,1476,365.1063829787237,1640,365.1063829787237" fill="none" stroke="#ccc"/><path d="M1312,449.36170212765995C1476,449.36170212765995,1476,383.82978723404284,1640,383.82978723404284" fill="none" stroke="#ccc"/><path d="M1312,449.36170212765995C1476,449.36170212765995,1476,402.55319148936206,1640,402.55319148936206" fill="none" stroke="#ccc"/><path d="M1312,449.36170212765995C1476,449.36170212765995,1476,421.27659574468123,1640,421.27659574468123" fill="none" stroke="#ccc"/><path d="M1312,449.36170212765995C1476,449.36170212765995,1476,440.0000000000004,1640,440.0000000000004" fill="none" stroke="#ccc"/><path d="M1312,449.36170212765995C1476,449.36170212765995,1476,458.72340425531956,1640,458.72340425531956" fill="none" stroke="#ccc"/><path d="M1312,449.36170212765995C1476,449.36170212765995,1476,477.44680851063873,1640,477.44680851063873" fill="none" stroke="#ccc"/><path d="M1312,449.36170212765995C1476,449.36170212765995,1476,496.1702127659579,1640,496.1702127659579" fill="none" stroke="#ccc"/><path d="M1312,449.36170212765995C1476,449.36170212765995,1476,514.8936170212771,1640,514.8936170212771" fill="none" stroke="#ccc"/><path d="M1312,449.36170212765995C1476,449.36170212765995,1476,533.6170212765962,1640,533.6170212765962" fill="none" stroke="#ccc"/><path d="M1312,449.36170212765995C1476,449.36170212765995,1476,552.3404255319153,1640,552.3404255319153" fill="none" stroke="#ccc"/><path d="M1312,571.0638297872346C1476,571.0638297872346,1476,571.0638297872346,1640,571.0638297872346" fill="none" stroke="#ccc"/><path d="M1312,589.7872340425536C1476,589.7872340425536,1476,589.7872340425536,1640,589.7872340425536" fill="none" stroke="#ccc"/><path d="M1312,739.5744680851067C1476,739.5744680851067,1476,608.5106382978727,1640,608.5106382978727" fill="none" stroke="#ccc"/><path d="M1312,739.5744680851067C1476,739.5744680851067,1476,627.2340425531919,1640,627.2340425531919" fill="none" stroke="#ccc"/><path d="M1312,739.5744680851067C1476,739.5744680851067,1476,645.9574468085109,1640,645.9574468085109" fill="none" stroke="#ccc"/><path d="M1312,739.5744680851067C1476,739.5744680851067,1476,664.6808510638301,1640,664.6808510638301" fill="none" stroke="#ccc"/><path d="M1312,739.5744680851067C1476,739.5744680851067,1476,683.4042553191492,1640,683.4042553191492" fill="none" stroke="#ccc"/><path d="M1312,739.5744680851067C1476,739.5744680851067,1476,702.1276595744683,1640,702.1276595744683" fill="none" stroke="#ccc"/><path d="M1312,739.5744680851067C1476,739.5744680851067,1476,720.8510638297874,1640,720.8510638297874" fill="none" stroke="#ccc"/><path d="M1312,739.5744680851067C1476,739.5744680851067,1476,739.5744680851067,1640,739.5744680851067" fill="none" stroke="#ccc"/><path d="M1312,739.5744680851067C1476,739.5744680851067,1476,758.2978723404257,1640,758.2978723404257" fill="none" stroke="#ccc"/><path d="M1312,739.5744680851067C1476,739.5744680851067,1476,777.0212765957449,1640,777.0212765957449" fill="none" stroke="#ccc"/><path d="M1312,739.5744680851067C1476,739.5744680851067,1476,795.744680851064,1640,795.744680851064" fill="none" stroke="#ccc"/><path d="M1312,739.5744680851067C1476,739.5744680851067,1476,814.468085106383,1640,814.468085106383" fill="none" stroke="#ccc"/><path d="M1312,739.5744680851067C1476,739.5744680851067,1476,833.1914893617022,1640,833.1914893617022" fill="none" stroke="#ccc"/><path d="M1312,739.5744680851067C1476,739.5744680851067,1476,851.9148936170213,1640,851.9148936170213" fill="none" stroke="#ccc"/><path d="M1312,739.5744680851067C1476,739.5744680851067,1476,870.6382978723404,1640,870.6382978723404" fill="none" stroke="#ccc"/></g><g id="nodes"><g transform="translate(0,592.1276595744682)"><circle fill="#ccc" r="5"/><text text-anchor="end" dominant-baseline="text-before-edge" transform="translate(0,0)"><tspan x="-8" y="0" dy="0" style="font-family: Arial, sans-serif; font-size: 10px; fill: black; font-weight: normal;"/></text></g><g id="NTCLASS" transform="translate(327.99999999999994,592.1276595744682)"><circle fill="#ccc" r="5"/><text text-anchor="end" dominant-baseline="text-before-edge" transform="translate(0,-5.681818008422852)"><tspan x="-8" y="0" dy="0" style="font-family: Arial, sans-serif; font-size: 10px; fill: black; font-weight: normal;">NTCLASS</tspan></text></g><g id="TCL1" transform="translate(656,592.1276595744682)"><circle fill="#ccc" r="5"/><text text-anchor="end" dominant-baseline="text-before-edge" transform="translate(0,-5.681818008422852)"><tspan x="-8" y="0" dy="0" style="font-family: Arial, sans-serif; font-size: 10px; fill: black; font-weight: normal;">TCL1</tspan></text></g><g id="NOKEY" transform="translate(984,444.6808510638301)"><circle fill="#1f77b4" r="5"/><text text-anchor="end" dominant-baseline="text-before-edge" transform="translate(0,-5.681818008422852)"><tspan x="-8" y="0" dy="0" style="font-family: Arial, sans-serif; font-size: 10px; fill: black; font-weight: normal;">NOKEY</tspan></text></g><g id="PKCSDER" transform="translate(984,739.5744680851067)"><circle fill="#ff7f0e" r="5"/><text text-anchor="end" dominant-baseline="text-before-edge" transform="translate(0,-5.681818008422852)"><tspan x="-8" y="0" dy="0" style="font-family: Arial, sans-serif; font-size: 10px; fill: black; font-weight: normal;">PKCSDER</tspan></text></g><g id="2048" transform="translate(1312,168.51063829787245)"><circle fill="#1f77b4" r="5"/><text text-anchor="end" dominant-baseline="text-before-edge" transform="translate(0,-5.681818008422852)"><tspan x="-8" y="0" dy="0" style="font-family: Arial, sans-serif; font-size: 10px; fill: black; font-weight: normal;">2048</tspan></text></g><g id="1024" transform="translate(1312,449.36170212765995)"><circle fill="#1f77b4" r="5"/><text text-anchor="end" dominant-baseline="text-before-edge" transform="translate(0,-5.681818008422852)"><tspan x="-8" y="0" dy="0" style="font-family: Arial, sans-serif; font-size: 10px; fill: black; font-weight: normal;">1024</tspan></text></g><g id="384" transform="translate(1312,571.0638297872346)"><circle fill="#1f77b4" r="5"/><text text-anchor="end" dominant-baseline="text-before-edge" transform="translate(0,-5.681818008422852)"><tspan x="-8" y="0" dy="0" style="font-family: Arial, sans-serif; font-size: 10px; fill: black; font-weight: normal;">384</tspan></text></g><g id="0" transform="translate(1312,589.7872340425536)"><circle fill="#1f77b4" r="5"/><text text-anchor="end" dominant-baseline="text-before-edge" transform="translate(0,-5.681818008422852)"><tspan x="-8" y="0" dy="0" style="font-family: Arial, sans-serif; font-size: 10px; fill: black; font-weight: normal;">0</tspan></text></g><g id="2048" transform="translate(1312,739.5744680851067)"><circle fill="#ff7f0e" r="5"/><text text-anchor="end" dominant-baseline="text-before-edge" transform="translate(0,-5.681818008422852)"><tspan x="-8" y="0" dy="0" style="font-family: Arial, sans-serif; font-size: 10px; fill: black; font-weight: normal;">2048</tspan></text></g><g id="DigiCert Global Root G2" transform="translate(1640,9.36170212765958)"><circle fill="#1f77b4" r="10"/><text text-anchor="start" dominant-baseline="text-before-edge" transform="translate(0,-5.681818008422852)"><tspan x="12" y="0" dy="0" style="font-family: Arial, sans-serif; font-size: 10px; fill: black; font-weight: bold;">DigiCert Global Root G2</tspan></text></g><g id="DigiCert Global RootCA" transform="translate(1640,28.08510638297874)"><circle fill="#1f77b4" r="10"/><text text-anchor="start" dominant-baseline="text-before-edge" transform="translate(0,-5.681818008422852)"><tspan x="12" y="0" dy="0" style="font-family: Arial, sans-serif; font-size: 10px; fill: black; font-weight: bold;">DigiCert Global RootCA</tspan></text></g><g id="GeoTrust Global CA" transform="translate(1640,46.8085106382979)"><circle fill="#1f77b4" r="10"/><text text-anchor="start" dominant-baseline="text-before-edge" transform="translate(0,-5.681818008422852)"><tspan x="12" y="0" dy="0" style="font-family: Arial, sans-serif; font-size: 10px; fill: black; font-weight: bold;">GeoTrust Global CA</tspan></text></g><g id="GeoTrust SSL CA -G3" transform="translate(1640,65.53191489361706)"><circle fill="#1f77b4" r="10"/><text text-anchor="start" dominant-baseline="text-before-edge" transform="translate(0,-5.681818008422852)"><tspan x="12" y="0" dy="0" style="font-family: Arial, sans-serif; font-size: 10px; fill: black; font-weight: bold;">GeoTrust SSL CA -G3</tspan></text></g><g id="Internal IBM Root CA" transform="translate(1640,84.25531914893622)"><circle fill="#1f77b4" r="10"/><text text-anchor="start" dominant-baseline="text-before-edge" transform="translate(0,-5.681818008422852)"><tspan x="12" y="0" dy="0" style="font-family: Arial, sans-serif; font-size: 10px; fill: black; font-weight: bold;">Internal IBM Root CA</tspan></text></g><g id="IBM internal intermediate CA" transform="translate(1640,102.97872340425538)"><circle fill="#1f77b4" r="10"/><text text-anchor="start" dominant-baseline="text-before-edge" transform="translate(0,-5.681818008422852)"><tspan x="12" y="0" dy="0" style="font-family: Arial, sans-serif; font-size: 10px; fill: black; font-weight: bold;">IBM internal intermediate CA</tspan></text></g><g id="ICP-Brasil CA v1" transform="translate(1640,121.70212765957454)"><circle fill="#1f77b4" r="10"/><text text-anchor="start" dominant-baseline="text-before-edge" transform="translate(0,-5.681818008422852)"><tspan x="12" y="0" dy="0" style="font-family: Arial, sans-serif; font-size: 10px; fill: black; font-weight: bold;">ICP-Brasil CA v1</tspan></text></g><g id="STG Code Signing CA" transform="translate(1640,140.42553191489372)"><circle fill="#1f77b4" r="10"/><text text-anchor="start" dominant-baseline="text-before-edge" transform="translate(0,-5.681818008422852)"><tspan x="12" y="0" dy="0" style="font-family: Arial, sans-serif; font-size: 10px; fill: black; font-weight: bold;">STG Code Signing CA</tspan></text></g><g id="STG Code Signing CA - G2" transform="translate(1640,159.14893617021286)"><circle fill="#1f77b4" r="10"/><text text-anchor="start" dominant-baseline="text-before-edge" transform="translate(0,-5.681818008422852)"><tspan x="12" y="0" dy="0" style="font-family: Arial, sans-serif; font-size: 10px; fill: black; font-weight: bold;">STG Code Signing CA - G2</tspan></text></g><g id="Verisign Class 1 Primary CA - G3" transform="translate(1640,177.87234042553203)"><circle fill="#1f77b4" r="10"/><text text-anchor="start" dominant-baseline="text-before-edge" transform="translate(0,-5.681818008422852)"><tspan x="12" y="0" dy="0" style="font-family: Arial, sans-serif; font-size: 10px; fill: black; font-weight: bold;">Verisign Class 1 Primary CA - G3</tspan></text></g><g id="Verisign Class 2 Primary CA - G3" transform="translate(1640,196.59574468085117)"><circle fill="#1f77b4" r="10"/><text text-anchor="start" dominant-baseline="text-before-edge" transform="translate(0,-5.681818008422852)"><tspan x="12" y="0" dy="0" style="font-family: Arial, sans-serif; font-size: 10px; fill: black; font-weight: bold;">Verisign Class 2 Primary CA - G3</tspan></text></g><g id="Verisign Class 3 Primary CA - G3" transform="translate(1640,215.31914893617034)"><circle fill="#1f77b4" r="10"/><text text-anchor="start" dominant-baseline="text-before-edge" transform="translate(0,-5.681818008422852)"><tspan x="12" y="0" dy="0" style="font-family: Arial, sans-serif; font-size: 10px; fill: black; font-weight: bold;">Verisign Class 3 Primary CA - G3</tspan></text></g><g id="Verisign Class 3 Primary CA - G5" transform="translate(1640,234.0425531914895)"><circle fill="#1f77b4" r="10"/><text text-anchor="start" dominant-baseline="text-before-edge" transform="translate(0,-5.681818008422852)"><tspan x="12" y="0" dy="0" style="font-family: Arial, sans-serif; font-size: 10px; fill: black; font-weight: bold;">Verisign Class 3 Primary CA - G5</tspan></text></g><g id="Verisign Class 4 Primary CA - G3" transform="translate(1640,252.76595744680864)"><circle fill="#1f77b4" r="10"/><text text-anchor="start" dominant-baseline="text-before-edge" transform="translate(0,-5.681818008422852)"><tspan x="12" y="0" dy="0" style="font-family: Arial, sans-serif; font-size: 10px; fill: black; font-weight: bold;">Verisign Class 4 Primary CA - G3</tspan></text></g><g id="Verisign Universal Root CA" transform="translate(1640,271.4893617021278)"><circle fill="#1f77b4" r="10"/><text text-anchor="start" dominant-baseline="text-before-edge" transform="translate(0,-5.681818008422852)"><tspan x="12" y="0" dy="0" style="font-family: Arial, sans-serif; font-size: 10px; fill: black; font-weight: bold;">Verisign Universal Root CA</tspan></text></g><g id="FTP SECURE ECUREP" transform="translate(1640,290.212765957447)"><circle fill="#1f77b4" r="10"/><text text-anchor="start" dominant-baseline="text-before-edge" transform="translate(0,-5.681818008422852)"><tspan x="12" y="0" dy="0" style="font-family: Arial, sans-serif; font-size: 10px; fill: black; font-weight: bold;">FTP SECURE ECUREP</tspan></text></g><g id="extca2" transform="translate(1640,308.93617021276617)"><circle fill="#1f77b4" r="10"/><text text-anchor="start" dominant-baseline="text-before-edge" transform="translate(0,-5.681818008422852)"><tspan x="12" y="0" dy="0" style="font-family: Arial, sans-serif; font-size: 10px; fill: black; font-weight: bold;">extca2</tspan></text></g><g id="extca3.subca" transform="translate(1640,327.65957446808534)"><circle fill="#1f77b4" r="10"/><text text-anchor="start" dominant-baseline="text-before-edge" transform="translate(0,-5.681818008422852)"><tspan x="12" y="0" dy="0" style="font-family: Arial, sans-serif; font-size: 10px; fill: black; font-weight: bold;">extca3.subca</tspan></text></g><g id="POK Master CA" transform="translate(1640,346.3829787234045)"><circle fill="#1f77b4" r="10"/><text text-anchor="start" dominant-baseline="text-before-edge" transform="translate(0,-5.681818008422852)"><tspan x="12" y="0" dy="0" style="font-family: Arial, sans-serif; font-size: 10px; fill: black; font-weight: bold;">POK Master CA</tspan></text></g><g id="Thawte Personal Basic CA" transform="translate(1640,365.1063829787237)"><circle fill="#1f77b4" r="10"/><text text-anchor="start" dominant-baseline="text-before-edge" transform="translate(0,-5.681818008422852)"><tspan x="12" y="0" dy="0" style="font-family: Arial, sans-serif; font-size: 10px; fill: black; font-weight: bold;">Thawte Personal Basic CA</tspan></text></g><g id="Thawte Personal Freemail CA" transform="translate(1640,383.82978723404284)"><circle fill="#1f77b4" r="10"/><text text-anchor="start" dominant-baseline="text-before-edge" transform="translate(0,-5.681818008422852)"><tspan x="12" y="0" dy="0" style="font-family: Arial, sans-serif; font-size: 10px; fill: black; font-weight: bold;">Thawte Personal Freemail CA</tspan></text></g><g id="Thawte Personal Premium CA" transform="translate(1640,402.55319148936206)"><circle fill="#1f77b4" r="10"/><text text-anchor="start" dominant-baseline="text-before-edge" transform="translate(0,-5.681818008422852)"><tspan x="12" y="0" dy="0" style="font-family: Arial, sans-serif; font-size: 10px; fill: black; font-weight: bold;">Thawte Personal Premium CA</tspan></text></g><g id="Thawte Premium Server CA" transform="translate(1640,421.27659574468123)"><circle fill="#1f77b4" r="10"/><text text-anchor="start" dominant-baseline="text-before-edge" transform="translate(0,-5.681818008422852)"><tspan x="12" y="0" dy="0" style="font-family: Arial, sans-serif; font-size: 10px; fill: black; font-weight: bold;">Thawte Premium Server CA</tspan></text></g><g id="Thawte Server CA" transform="translate(1640,440.0000000000004)"><circle fill="#1f77b4" r="10"/><text text-anchor="start" dominant-baseline="text-before-edge" transform="translate(0,-5.681818008422852)"><tspan x="12" y="0" dy="0" style="font-family: Arial, sans-serif; font-size: 10px; fill: black; font-weight: bold;">Thawte Server CA</tspan></text></g><g id="Verisign Class 1 Primary CA - G2" transform="translate(1640,458.72340425531956)"><circle fill="#1f77b4" r="10"/><text text-anchor="start" dominant-baseline="text-before-edge" transform="translate(0,-5.681818008422852)"><tspan x="12" y="0" dy="0" style="font-family: Arial, sans-serif; font-size: 10px; fill: black; font-weight: bold;">Verisign Class 1 Primary CA - G2</tspan></text></g><g id="Verisign Class 2 Primary CA" transform="translate(1640,477.44680851063873)"><circle fill="#1f77b4" r="10"/><text text-anchor="start" dominant-baseline="text-before-edge" transform="translate(0,-5.681818008422852)"><tspan x="12" y="0" dy="0" style="font-family: Arial, sans-serif; font-size: 10px; fill: black; font-weight: bold;">Verisign Class 2 Primary CA</tspan></text></g><g id="Verisign Class 2 Primary CA - G2" transform="translate(1640,496.1702127659579)"><circle fill="#1f77b4" r="10"/><text text-anchor="start" dominant-baseline="text-before-edge" transform="translate(0,-5.681818008422852)"><tspan x="12" y="0" dy="0" style="font-family: Arial, sans-serif; font-size: 10px; fill: black; font-weight: bold;">Verisign Class 2 Primary CA - G2</tspan></text></g><g id="Verisign Class 3 Primary CA" transform="translate(1640,514.8936170212771)"><circle fill="#1f77b4" r="10"/><text text-anchor="start" dominant-baseline="text-before-edge" transform="translate(0,-5.681818008422852)"><tspan x="12" y="0" dy="0" style="font-family: Arial, sans-serif; font-size: 10px; fill: black; font-weight: bold;">Verisign Class 3 Primary CA</tspan></text></g><g id="Verisign Class 3 Primary CA - G2" transform="translate(1640,533.6170212765962)"><circle fill="#1f77b4" r="10"/><text text-anchor="start" dominant-baseline="text-before-edge" transform="translate(0,-5.681818008422852)"><tspan x="12" y="0" dy="0" style="font-family: Arial, sans-serif; font-size: 10px; fill: black; font-weight: bold;">Verisign Class 3 Primary CA - G2</tspan></text></g><g id="Verisign Class 4 Primary CA - G2" transform="translate(1640,552.3404255319153)"><circle fill="#1f77b4" r="10"/><text text-anchor="start" dominant-baseline="text-before-edge" transform="translate(0,-5.681818008422852)"><tspan x="12" y="0" dy="0" style="font-family: Arial, sans-serif; font-size: 10px; fill: black; font-weight: bold;">Verisign Class 4 Primary CA - G2</tspan></text></g><g id="Verisign Class 3 Primary CA - G4" transform="translate(1640,571.0638297872346)"><circle fill="#1f77b4" r="10"/><text text-anchor="start" dominant-baseline="text-before-edge" transform="translate(0,-5.681818008422852)"><tspan x="12" y="0" dy="0" style="font-family: Arial, sans-serif; font-size: 10px; fill: black; font-weight: bold;">Verisign Class 3 Primary CA - G4</tspan></text></g><g id="baddsa" transform="translate(1640,589.7872340425536)"><circle fill="#1f77b4" r="10"/><text text-anchor="start" dominant-baseline="text-before-edge" transform="translate(0,-5.681818008422852)"><tspan x="12" y="0" dy="0" style="font-family: Arial, sans-serif; font-size: 10px; fill: black; font-weight: bold;">baddsa</tspan></text></g><g id="zOSMFCA" transform="translate(1640,608.5106382978727)"><circle fill="#ff7f0e" r="10"/><text text-anchor="start" dominant-baseline="text-before-edge" transform="translate(0,-5.681818008422852)"><tspan x="12" y="0" dy="0" style="font-family: Arial, sans-serif; font-size: 10px; fill: black; font-weight: bold;">zOSMFCA</tspan></text></g><g id="NTC Master CA" transform="translate(1640,627.2340425531919)"><circle fill="#ff7f0e" r="10"/><text text-anchor="start" dominant-baseline="text-before-edge" transform="translate(0,-5.681818008422852)"><tspan x="12" y="0" dy="0" style="font-family: Arial, sans-serif; font-size: 10px; fill: black; font-weight: bold;">NTC Master CA</tspan></text></g><g id="NTC Subordinate CA X" transform="translate(1640,645.9574468085109)"><circle fill="#ff7f0e" r="10"/><text text-anchor="start" dominant-baseline="text-before-edge" transform="translate(0,-5.681818008422852)"><tspan x="12" y="0" dy="0" style="font-family: Arial, sans-serif; font-size: 10px; fill: black; font-weight: bold;">NTC Subordinate CA X</tspan></text></g><g id="NTC Subordinate CA 1" transform="translate(1640,664.6808510638301)"><circle fill="#ff7f0e" r="10"/><text text-anchor="start" dominant-baseline="text-before-edge" transform="translate(0,-5.681818008422852)"><tspan x="12" y="0" dy="0" style="font-family: Arial, sans-serif; font-size: 10px; fill: black; font-weight: bold;">NTC Subordinate CA 1</tspan></text></g><g id="NTC Subordinate CA 2" transform="translate(1640,683.4042553191492)"><circle fill="#ff7f0e" r="10"/><text text-anchor="start" dominant-baseline="text-before-edge" transform="translate(0,-5.681818008422852)"><tspan x="12" y="0" dy="0" style="font-family: Arial, sans-serif; font-size: 10px; fill: black; font-weight: bold;">NTC Subordinate CA 2</tspan></text></g><g id="DefaultzOSMFCert.IZUDFLT" transform="translate(1640,702.1276595744683)"><circle fill="#ff7f0e" r="10"/><text text-anchor="start" dominant-baseline="text-before-edge" transform="translate(0,-5.681818008422852)"><tspan x="12" y="0" dy="0" style="font-family: Arial, sans-serif; font-size: 10px; fill: black; font-weight: bold;">DefaultzOSMFCert.IZUDFLT</tspan></text></g><g id="SERV TN3270 CA CERT" transform="translate(1640,720.8510638297874)"><circle fill="#ff7f0e" r="10"/><text text-anchor="start" dominant-baseline="text-before-edge" transform="translate(0,-5.681818008422852)"><tspan x="12" y="0" dy="0" style="font-family: Arial, sans-serif; font-size: 10px; fill: black; font-weight: bold;">SERV TN3270 CA CERT</tspan></text></g><g id="SERVER DDF CA CERT" transform="translate(1640,739.5744680851067)"><circle fill="#ff7f0e" r="10"/><text text-anchor="start" dominant-baseline="text-before-edge" transform="translate(0,-5.681818008422852)"><tspan x="12" y="0" dy="0" style="font-family: Arial, sans-serif; font-size: 10px; fill: black; font-weight: bold;">SERVER DDF CA CERT</tspan></text></g><g id="NTC PKIRA" transform="translate(1640,758.2978723404257)"><circle fill="#ff7f0e" r="10"/><text text-anchor="start" dominant-baseline="text-before-edge" transform="translate(0,-5.681818008422852)"><tspan x="12" y="0" dy="0" style="font-family: Arial, sans-serif; font-size: 10px; fill: black; font-weight: bold;">NTC PKIRA</tspan></text></g><g id="NTC PKISubRA1" transform="translate(1640,777.0212765957449)"><circle fill="#ff7f0e" r="10"/><text text-anchor="start" dominant-baseline="text-before-edge" transform="translate(0,-5.681818008422852)"><tspan x="12" y="0" dy="0" style="font-family: Arial, sans-serif; font-size: 10px; fill: black; font-weight: bold;">NTC PKISubRA1</tspan></text></g><g id="NTC PKISubRA2" transform="translate(1640,795.744680851064)"><circle fill="#ff7f0e" r="10"/><text text-anchor="start" dominant-baseline="text-before-edge" transform="translate(0,-5.681818008422852)"><tspan x="12" y="0" dy="0" style="font-family: Arial, sans-serif; font-size: 10px; fill: black; font-weight: bold;">NTC PKISubRA2</tspan></text></g><g id="PKISubRAX" transform="translate(1640,814.468085106383)"><circle fill="#ff7f0e" r="10"/><text text-anchor="start" dominant-baseline="text-before-edge" transform="translate(0,-5.681818008422852)"><tspan x="12" y="0" dy="0" style="font-family: Arial, sans-serif; font-size: 10px; fill: black; font-weight: bold;">PKISubRAX</tspan></text></g><g id="JES2 SECURE SOCKET" transform="translate(1640,833.1914893617022)"><circle fill="#ff7f0e" r="10"/><text text-anchor="start" dominant-baseline="text-before-edge" transform="translate(0,-5.681818008422852)"><tspan x="12" y="0" dy="0" style="font-family: Arial, sans-serif; font-size: 10px; fill: black; font-weight: bold;">JES2 SECURE SOCKET</tspan></text></g><g id="RRSF NTC SERVER" transform="translate(1640,851.9148936170213)"><circle fill="#ff7f0e" r="10"/><text text-anchor="start" dominant-baseline="text-before-edge" transform="translate(0,-5.681818008422852)"><tspan x="12" y="0" dy="0" style="font-family: Arial, sans-serif; font-size: 10px; fill: black; font-weight: bold;">RRSF NTC SERVER</tspan></text></g><g id="SSL Cert" transform="translate(1640,870.6382978723404)"><circle fill="#ff7f0e" r="10"/><text text-anchor="start" dominant-baseline="text-before-edge" transform="translate(0,-5.681818008422852)"><tspan x="12" y="0" dy="0" style="font-family: Arial, sans-serif; font-size: 10px; fill: black; font-weight: bold;">SSL Cert</tspan></text></g></g></g><g id="legend" transform="translate(1800,10)"><g transform="translate(5,0)"><g class="legendSize" transform="translate(0,0)"><g class="legendCells" transform="translate(10,15.909090042114258)"><g class="cell" transform="translate(0, 0)"><circle class="swatch" r="0" fill="none" stroke="#ccc"/><text class="label" transform="translate( 15,&#10;          5)" font-family="&quot;Arial&quot;, sans-serif" font-size="10px"><tspan x="0" dy="0em">0.0</tspan></text></g><g class="cell" transform="translate(0, 25.909090042114258)"><circle class="swatch" r="10" fill="none" stroke="#ccc"/><text class="label" transform="translate( 15,&#10;          5)" font-family="&quot;Arial&quot;, sans-serif" font-size="10px"><tspan x="0" dy="0em">1.0</tspan></text></g></g><text class="legendTitle" font-family="&quot;Arial&quot;, sans-serif" font-size="12px" font-weight="bold"><tspan x="0" dy="0em">Number of records</tspan></text></g><g class="legendColor" transform="translate(0,84.54544830322266)"><g class="legendCells" transform="translate(0,15.909090042114258)"><g class="cell" transform="translate(0, 0)"><rect class="swatch" height="15" width="15" style="fill: rgb(31, 119, 180);"/><text class="label" transform="translate( 20, 12.5)" font-family="&quot;Arial&quot;, sans-serif" font-size="10px"><tspan x="0" dy="0em">NOKEY</tspan></text></g><g class="cell" transform="translate(0, 20.909090042114258)"><rect class="swatch" height="15" width="15" style="fill: rgb(255, 127, 14);"/><text class="label" transform="translate( 20, 12.5)" font-family="&quot;Arial&quot;, sans-serif" font-size="10px"><tspan x="0" dy="0em">PKCSDER</tspan></text></g></g><text class="legendTitle" font-family="&quot;Arial&quot;, sans-serif" font-size="12px" font-weight="bold"><tspan x="0" dy="0em">Key Type</tspan></text></g></g></g></svg>